<svg width="100" height="100" viewBox="0 0 100 100" fill="none" xmlns="http://www.w3.org/2000/svg">
<g clip-path="url(#clip0)">
<path d="M48.2975 41.8608H54.942V45.183H48.2975V41.8608Z" fill="#4EFCE2"/>
<path d="M68.2311 41.8608H74.8756V45.183H68.2311V41.8608Z" fill="#4EFCE2"/>
<path d="M68.2311 55.1498H74.8756V58.4721H68.2311V55.1498Z" fill="#4EFCE2"/>
<path d="M48.2975 55.1498H54.942V58.4721H48.2975V55.1498Z" fill="#4EFCE2"/>
<path d="M48.2975 68.4389H54.942V71.7611H48.2975V68.4389Z" fill="#4EFCE2"/>
<path d="M68.2311 68.4389H74.8756V71.7611H68.2311V68.4389Z" fill="#4EFCE2"/>
<path d="M66.5699 90.0335H69.8922V93.3558H66.5699V90.0335Z" fill="#4EFCE2"/>
<path d="M94.8091 25.9138L49.9586 0L5.10814 25.9138V66.7777H8.4304V27.9067L49.9586 3.98655L91.4869 27.9067V96.6781H74.8756C75.7062 95.6812 76.2042 94.5181 76.3704 93.3558H83.1812C86.0047 93.3558 88.1646 91.1958 88.1646 88.3724V80.0668C88.1646 77.2425 86.0047 75.0834 83.1812 75.0834V40.1997C83.1812 37.5417 81.0213 35.2163 78.3641 35.2163H44.809C42.151 35.2163 39.9919 37.5417 39.9919 40.1997V75.0834H36.6696V46.8442H33.3473V50.1664H25.3734C23.5468 50.1664 21.8857 51.1625 21.0552 52.8236L9.09469 75.2488C8.59668 75.9139 8.4304 76.7445 8.4304 77.5751V88.3724C8.4304 91.1958 10.5895 93.3558 13.4138 93.3558H16.9023C17.2341 94.5181 17.7329 95.6812 18.3972 96.6781H0.124756V100H99.7925V96.6781H94.8091V25.9138ZM33.1811 93.3558H60.0917C60.4234 94.5181 60.9223 95.6812 61.5866 96.6781H31.6862C32.3505 95.6812 32.8485 94.5181 33.1811 93.3558ZM63.2477 91.6947C63.2477 88.8704 65.4068 86.7113 68.2311 86.7113C71.0545 86.7113 73.2145 88.8704 73.2145 91.6947C73.2145 94.5181 71.0545 96.6781 68.2311 96.6781C65.4068 96.6781 63.2477 94.5181 63.2477 91.6947ZM63.2477 75.0834V65.1166H79.859V75.0834H63.2477ZM63.2477 51.8276H79.859V61.7943H63.2477V51.8276ZM59.9254 61.7943H43.3141V51.8276H59.9254V61.7943ZM79.859 40.1997V48.5053H63.2477V38.5385H78.3641C79.1947 38.5385 79.859 39.3691 79.859 40.1997ZM44.809 38.5385H59.9254V48.5053H43.3141V40.1997C43.3141 39.3691 43.9784 38.5385 44.809 38.5385ZM43.3141 65.1166H59.9254V75.0834H43.3141V65.1166ZM23.8786 54.3193C24.2111 53.8204 24.7091 53.4887 25.3734 53.4887H33.3473V75.0834H12.915L23.8786 54.3193ZM11.7527 88.3724V78.4056H83.1812C84.1781 78.4056 84.8424 79.0699 84.8424 80.0668V88.3724C84.8424 89.3684 84.1781 90.0335 83.1812 90.0335H76.3704C75.3736 85.5482 71.0545 82.5585 66.5699 83.5545C63.2477 84.2196 60.756 86.7113 60.0917 90.0335H33.1811C32.1842 85.5482 27.8651 82.5585 23.3806 83.5545C20.0583 84.2196 17.5666 86.7113 16.9023 90.0335H13.4138C12.417 90.0335 11.7527 89.3684 11.7527 88.3724ZM20.0583 91.6947C20.0583 88.8704 22.2175 86.7113 25.0417 86.7113C27.8651 86.7113 30.0251 88.8704 30.0251 91.6947C30.0251 94.5181 27.8651 96.6781 25.0417 96.6781C22.2175 96.6781 20.0583 94.5181 20.0583 91.6947Z" fill="#4EFCE2"/>
<path d="M23.3806 90.0335H26.7029V93.3558H23.3806V90.0335Z" fill="#4EFCE2"/>
<path d="M59.9254 15.947L49.9586 9.96678L39.9918 15.947V30.2329H59.9254V15.947ZM43.3141 17.9399L48.2975 14.9502V26.9106H43.3141V17.9399ZM56.6031 26.9106H51.6197V14.9502L56.6031 17.9399V26.9106Z" fill="#4EFCE2"/>
</g>
<defs>
<clipPath id="clip0">
<rect width="100" height="100" fill="white"/>
</clipPath>
</defs>
</svg>
