<svg width="100" height="100" viewBox="0 0 100 100" fill="none" xmlns="http://www.w3.org/2000/svg">
<path d="M93.538 66.6397C92.7285 66.6397 92.0731 67.2958 92.0731 68.1046V91.4581H61.879V63.7352C61.879 61.85 60.3455 60.3165 58.4611 60.3165H41.5391C39.6546 60.3165 38.1211 61.8507 38.1211 63.7352V91.4581H7.927V68.1046C7.927 67.2958 7.27164 66.6397 6.46216 66.6397C5.65268 66.6397 4.99731 67.2958 4.99731 68.1046V92.1417C4.99731 93.38 6.00516 94.3878 7.24341 94.3878H92.7567C93.995 94.3878 95.0028 93.38 95.0028 92.1417V68.1046C95.0028 67.2958 94.3474 66.6397 93.538 66.6397ZM41.0508 91.4581V63.7352C41.0508 63.4659 41.2697 63.2462 41.5391 63.2462H58.4611C58.7304 63.2462 58.9493 63.4659 58.9493 63.7352V91.4581H41.0508Z" fill="#FB5555"/>
<path d="M86.5791 85.6705C88.2988 85.6705 89.698 84.2712 89.698 82.5516V66.5665C89.698 64.8468 88.2988 63.4483 86.5791 63.4483H68.4509C66.7313 63.4483 65.332 64.8468 65.332 66.5665V82.5516C65.332 84.2712 66.7313 85.6705 68.4509 85.6705H86.5791ZM68.2617 82.5516V66.5665C68.2617 66.4627 68.3464 66.378 68.4509 66.378H86.5791C86.6837 66.378 86.7683 66.4627 86.7683 66.5665V82.5516C86.7683 82.6561 86.6837 82.7408 86.5791 82.7408H68.4509C68.3464 82.7408 68.2617 82.6561 68.2617 82.5516Z" fill="#FB5555"/>
<path d="M31.5491 85.6705C33.2688 85.6705 34.668 84.2712 34.668 82.5516V66.5665C34.668 64.8468 33.2688 63.4483 31.5491 63.4483H13.4209C11.7012 63.4483 10.302 64.8468 10.302 66.5665V82.5516C10.302 84.2712 11.7012 85.6705 13.4209 85.6705H31.5491ZM13.2317 82.5516V66.5665C13.2317 66.4627 13.3164 66.378 13.4209 66.378H31.5491C31.6536 66.378 31.7383 66.4627 31.7383 66.5665V82.5516C31.7383 82.6561 31.6536 82.7408 31.5491 82.7408H13.4209C13.3164 82.7408 13.2317 82.6561 13.2317 82.5516Z" fill="#FB5555"/>
<path d="M95.6955 27.2598C95.6955 25.695 96.9688 24.4225 98.5352 24.4225C99.3446 24.4225 100 23.7663 100 22.9576V19.3733C100 18.5646 99.3446 17.9085 98.5352 17.9085H74.3538C73.5443 17.9085 72.8889 18.5646 72.8889 19.3733C72.8889 20.1828 73.5443 20.8382 74.3538 20.8382H97.0703V21.6812C95.0645 22.2076 93.4814 23.79 92.9543 25.795H69.9097V12.7914C69.9097 8.86154 66.7122 5.66406 62.7823 5.66406H37.2185C33.2878 5.66406 30.0911 8.86154 30.0911 12.7914V17.9085H1.46484C0.655365 17.9085 0 18.5646 0 19.3733V22.9576C0 23.7663 0.655365 24.4225 1.46484 24.4225C3.03116 24.4225 4.3045 25.695 4.3045 27.2598C4.3045 27.7885 4.5845 28.2516 5.00412 28.5095V38.5147H2.36816C1.12915 38.5147 0.121307 39.5226 0.121307 40.7608V48.7373C0.121307 49.9756 1.12915 50.9834 2.36816 50.9834H5.00412V62.2559C5.00412 63.0646 5.65948 63.7207 6.46896 63.7207C7.27844 63.7207 7.93381 63.0646 7.93381 62.2559V50.9834H92.1875V62.2581C92.1875 63.0669 92.8429 63.723 93.6523 63.723C94.4611 63.723 95.1172 63.0669 95.1172 62.2581V50.9834H97.7531C98.9922 50.9834 100 49.9756 100 48.7373V40.7608C100 39.5226 98.9922 38.5147 97.7531 38.5147H95.1172V28.4264C95.4681 28.1586 95.6955 27.7359 95.6955 27.2598V27.2598ZM33.02 12.7914C33.02 10.4767 34.9037 8.59375 37.2177 8.59375H62.7815C65.0963 8.59375 66.9792 10.4767 66.9792 12.7914V28.7743C66.9792 31.089 65.0963 32.972 62.7815 32.972H37.2185C34.9037 32.972 33.0208 31.089 33.0208 28.7743V12.7914H33.02ZM97.0703 48.0537H3.05099V41.4444H97.0703V48.0537ZM7.93381 38.5147V28.7247H25.6973C26.5068 28.7247 27.1622 28.0693 27.1622 27.2598C27.1622 26.4511 26.5068 25.795 25.6973 25.795H7.04575C6.51855 23.79 4.93546 22.2076 2.92969 21.6812V20.8382H30.0903V28.775C30.0903 32.7049 33.2878 35.9024 37.2177 35.9024H62.7815C66.7122 35.9024 69.9089 32.7049 69.9089 28.775V28.7254H92.1867V38.5147H7.93381Z" fill="#FB5555"/>
<path d="M44.3359 75.8873H43.1641C42.3546 75.8873 41.6992 76.5434 41.6992 77.3521C41.6992 78.1609 42.3546 78.817 43.1641 78.817H44.3359C45.1454 78.817 45.8008 78.1609 45.8008 77.3521C45.8008 76.5434 45.1454 75.8873 44.3359 75.8873Z" fill="#FB5555"/>
<path d="M39.5073 14.4402H41.3025L43.1442 23.2445C43.5013 24.9504 45.0256 26.1894 46.769 26.1894H55.4672C56.9985 26.1894 58.3908 25.2266 58.9317 23.7946L61.8042 16.1903C62.0773 15.4663 61.9782 14.6545 61.5387 14.019C61.0993 13.3827 60.3745 13.0028 59.6016 13.0028H47.2992C46.4905 13.0028 45.8344 13.6581 45.8344 14.4676C45.8344 15.2763 46.4905 15.9325 47.2992 15.9325H58.77L56.1913 22.7592C56.0783 23.0583 55.7877 23.2597 55.468 23.2597H46.769C46.405 23.2597 46.0869 23.0003 46.0121 22.6448L44.1628 13.8062C43.8843 12.4756 42.6964 11.5105 41.3368 11.5105H39.5081C38.6986 11.5105 38.0432 12.1658 38.0432 12.9753C38.0432 13.784 38.6986 14.4402 39.5073 14.4402V14.4402Z" fill="#FB5555"/>
<path d="M47.0215 27.4185H46.6309C45.8214 27.4185 45.166 28.0739 45.166 28.8834C45.166 29.6921 45.8214 30.3482 46.6309 30.3482H47.0215C47.831 30.3482 48.4863 29.6921 48.4863 28.8834C48.4863 28.0739 47.831 27.4185 47.0215 27.4185Z" fill="#FB5555"/>
<path d="M53.3691 27.4185H52.9785C52.169 27.4185 51.5137 28.0739 51.5137 28.8834C51.5137 29.6921 52.169 30.3482 52.9785 30.3482H53.3691C54.1786 30.3482 54.834 29.6921 54.834 28.8834C54.834 28.0739 54.1786 27.4185 53.3691 27.4185Z" fill="#FB5555"/>
</svg>
