<svg width="100" height="100" viewBox="0 0 100 100" fill="none" xmlns="http://www.w3.org/2000/svg">
<g clip-path="url(#clip0)">
<path d="M95.7354 40.0195L82.2486 12.8105C81.9642 12.2368 81.5285 11.7514 80.9887 11.4067L64.808 1.07807C62.8909 -0.145731 60.4146 -0.170742 58.4995 1.01426C53.3518 4.19882 47.8376 4.10271 41.642 0.719634C39.76 -0.308011 37.4564 -0.230416 35.63 0.922288L32.8391 2.68354C32.8358 2.68551 32.8328 2.68768 32.8295 2.68965L19.024 11.402C18.4771 11.7472 18.0361 12.236 17.749 12.8154L4.26455 40.0195C3.69027 41.1779 4.12 42.5878 5.24237 43.2292L19.9607 51.6397V97.6377C19.9607 98.9403 21.0204 100 22.323 100H77.677C78.9795 100 80.0393 98.9403 80.0393 97.6377V81.8689C80.0393 81.0532 79.3779 80.3919 78.5622 80.3919C77.7465 80.3919 77.0851 81.0532 77.0851 81.8689V97.0459H22.9148V33.2334C22.9148 32.4177 22.2535 31.7564 21.4377 31.7564C20.622 31.7564 19.9607 32.4177 19.9607 33.2334V48.2373L7.12416 40.9022L20.3959 14.1273C20.442 14.0341 20.5129 13.9555 20.6007 13.9002L32.6006 6.32717C33.2771 8.77142 34.4678 11.0599 36.1083 13.0366C36.4004 13.3887 36.8215 13.5703 37.2457 13.5703C37.5781 13.5703 37.9125 13.4588 38.1883 13.2298C38.8161 12.7087 38.9026 11.7775 38.3817 11.1499C36.815 9.26201 35.7375 7.03656 35.2329 4.66596L37.2063 3.4205C37.2677 3.3817 37.3306 3.34566 37.394 3.31179C37.7814 6.08099 39.0615 8.63593 41.0894 10.6225C43.4834 12.9679 46.6481 14.2596 50.0001 14.2596C53.3246 14.2596 56.4706 12.986 58.8583 10.6735C60.9235 8.67334 62.229 6.08237 62.6134 3.2724C62.823 3.34743 63.0264 3.44532 63.2186 3.56801L64.7853 4.56808C63.3592 11.502 57.1638 16.6227 50.0001 16.6227C47.3784 16.6227 44.7909 15.9334 42.5176 14.6297C41.8098 14.2238 40.9072 14.4684 40.5015 15.176C40.0956 15.8836 40.3404 16.7864 41.0479 17.1921C43.768 18.7521 46.8636 19.5767 50.0001 19.5767C58.1864 19.5767 65.3151 13.9829 67.4192 6.24918L79.3992 13.8963C79.4859 13.9518 79.556 14.0298 79.6017 14.122L92.8758 40.9018L80.0393 48.2369V33.233C80.0393 32.4173 79.3779 31.756 78.5622 31.756C77.7465 31.756 77.0851 32.4173 77.0851 33.233V75.9606C77.0851 76.7764 77.7465 77.4377 78.5622 77.4377C79.3779 77.4377 80.0393 76.7764 80.0393 75.9606V51.6397L94.7576 43.2292C95.8799 42.5878 96.3097 41.1779 95.7354 40.0195V40.0195ZM49.9999 11.3055C47.4256 11.3055 44.9952 10.3135 43.1565 8.51225C41.724 7.10864 40.7775 5.33616 40.4031 3.40612C47.2322 7.07792 53.6537 7.22936 59.5025 3.85515C58.4646 8.16189 54.6148 11.3055 49.9999 11.3055V11.3055Z" fill="#FBFC46"/>
</g>
<defs>
<clipPath id="clip0">
<rect width="100" height="100" fill="white"/>
</clipPath>
</defs>
</svg>
